<?xml version="1.0" encoding="UTF-8"?>
<svg id="Camada_2" data-name="Camada 2" xmlns="http://www.w3.org/2000/svg" viewBox="0 0 130.31 34.17">
  <defs>
    <style>
      .cls-1, .cls-2, .cls-3 {
        fill: #fff;
      }

      .cls-2 {
        font-family: Poppins-Regular, Poppins;
        font-size: 8px;
      }

      .cls-3 {
        font-family: Poppins-Bold, Poppins;
        font-size: 11px;
        font-weight: 700;
      }
    </style>
  </defs>
  <g id="Layer_1" data-name="Layer 1">
    <g>
      <g>
        <path class="cls-1" d="M16.93,13.29c-3.84,0-7.45,1.49-10.16,4.21-2.71,2.71-4.21,6.32-4.21,10.16,0,1.21,.35,2.38,1.01,3.39,1.15,1.76,3.09,2.81,5.19,2.81,1.72,0,3.07-.4,4.37-.78,1.22-.36,2.37-.7,3.81-.7s2.59,.34,3.81,.7c1.3,.39,2.65,.78,4.37,.78,2.1,0,4.04-1.05,5.19-2.81,.66-1.01,1.01-2.18,1.01-3.39,0-3.84-1.49-7.45-4.21-10.16-2.71-2.71-6.32-4.21-10.16-4.21h0Zm3.19,10.47h-2.19v2.2c0,.55-.44,.99-.99,.99s-.99-.44-.99-.99v-2.2h-2.19c-.55,0-.99-.44-.99-.99s.44-.99,.99-.99h2.19v-2.19c0-.55,.44-.99,.99-.99s.99,.44,.99,.99v2.19h2.19c.55,0,.99,.44,.99,.99s-.44,.99-.99,.99h0Z"/>
        <path class="cls-1" d="M12.32,10.48c1.15,0,2.26-.6,3.05-1.64,.73-.97,1.13-2.25,1.13-3.6s-.4-2.63-1.13-3.6c-.78-1.04-1.89-1.64-3.05-1.64s-2.26,.6-3.05,1.64c-.73,.97-1.13,2.25-1.13,3.6s.4,2.63,1.13,3.6c.78,1.04,1.89,1.64,3.05,1.64h0Z"/>
        <path class="cls-1" d="M21.53,10.48c1.15,0,2.26-.6,3.05-1.64,.73-.97,1.13-2.25,1.13-3.6s-.4-2.63-1.13-3.6c-.78-1.04-1.89-1.64-3.05-1.64s-2.26,.6-3.05,1.64c-.73,.97-1.13,2.25-1.13,3.6s.4,2.63,1.13,3.6c.78,1.04,1.89,1.64,3.05,1.64h0Z"/>
        <path class="cls-1" d="M32.88,6.04c-.68-.91-1.66-1.43-2.67-1.43s-1.99,.52-2.67,1.43c-.63,.84-.98,1.94-.98,3.1s.35,2.26,.98,3.1c.68,.91,1.66,1.43,2.67,1.43s1.99-.52,2.67-1.43c.63-.84,.98-1.94,.98-3.1s-.35-2.26-.98-3.1h0Z"/>
        <path class="cls-1" d="M6.32,12.23c.63-.84,.98-1.94,.98-3.1s-.35-2.26-.98-3.1c-.68-.91-1.66-1.43-2.67-1.43s-1.99,.52-2.67,1.43c-.63,.84-.98,1.94-.98,3.1s.35,2.26,.98,3.1c.68,.91,1.66,1.43,2.67,1.43s1.99-.52,2.67-1.43h0Z"/>
      </g>
      <g>
        <text class="cls-3" transform="translate(39.57 19.1)"><tspan x="0" y="0">COMPANY LOGO</tspan></text>
        <text class="cls-2" transform="translate(39.57 29.58)"><tspan x="0" y="0">Lorem Ipsum available</tspan></text>
      </g>
    </g>
  </g>
</svg>